<?xml version="1.0" encoding="UTF-8" standalone="no"?>
<!-- Created with Inkscape (http://www.inkscape.org/) -->

<svg
   version="1.1"
   id="svg1"
   width="1024"
   height="1024"
   viewBox="0 0 1024 1024"
   xmlns="http://www.w3.org/2000/svg"
   xmlns:svg="http://www.w3.org/2000/svg">
  <defs
     id="defs1" />
  <g
     id="g1">
    <path
       style="fill:#000000"
       d="m 501.4392,794.9431 -3.66821,-0.2241 -25.5,-0.5259 -25.5,-0.526 -0.24776,-89 -0.24777,-88.99995 -0.50278,-1.33321 -0.50278,-1.3332 -33.53887,32.8332 -33.5388,32.83316 -1.7129,0.2871 -1.7129,0.2871 -31.8288,-32.53706 -31.8288,-32.53709 h -0.9189 -0.9189 v 40.3356 40.33565 l -0.6634,49.6643 -0.6634,49.6644 h -29.689 -29.689 l -0.6379,-9.25 -0.6378,-9.25 -0.063,-122.25937 -0.063,-122.25942 0.6122,-0.99058 0.6123,-0.99058 h 30.794 30.794 l 33.294,34.5 33.294,34.5 h 0.6359 0.6359 l 19.5078,-19.75 19.50788,-19.75 14.37285,-14.97477 14.37285,-14.97477 30.58639,0.32106 30.58639,0.32107 0.75,0.46272 0.75,0.46272 v 131.83402 131.834 l -1.58179,0.607 -1.58178,0.6069 z m 125.8119,-0.3366 -87.51989,0.6875 -0.73011,-0.7301 -0.73011,-0.7301 V 662.6229 531.41204 l 1.25,-1.01346 1.25,-1.01347 130,-0.35898 130.00003,-0.35898 0.2596,47.72852 0.2597,47.72852 -2.2597,0.55199 -2.2596,0.55199 -28,-0.28051 -28,-0.28051 -0.2727,-17.65277 -0.2727,-17.65277 -11.22731,-0.65335 -11.22732,-0.65336 -58.5,0.30612 -58.5,0.30613 0.38562,72.49995 0.38561,72.5 1.04966,0.6736 1.04966,0.6735 68.24273,0.091 68.24275,0.091 0.6908,-2.1766 0.6909,-2.1767 -0.3689,-14.0879 -0.3688,-14.0879 29,-0.7217 29,-0.7217 1.2601,0.4442 1.2601,0.4442 -0.2601,45.7775 -0.2601,45.7775 -43,0.126 -43.00003,0.1259 z M 478.27099,502.66715 h -29.5 l -100.64786,-0.25475 -100.6478,-0.25474 -0.6576,-13.24526 -0.6576,-13.24525 0.3054,-129 0.3055,-129 85,-0.60563 85,-0.60563 44.99996,-0.39437 45,-0.39437 0.26467,29.61401 0.26467,29.61401 -98.7647,0.74279 -98.7646,0.74278 -0.7772,1.14321 -0.7771,1.1432 0.5271,2.875 0.5272,2.875 v 23.22289 23.2229 l 71.25,0.72043 71.24996,0.72044 0.64296,0.68167 0.64297,0.68167 -0.64297,27.5 -0.64296,27.5 -70.66736,0.5 -70.6673,0.5 -0.645,0.6456 -0.6449,0.64561 0.092,26.31353 0.092,26.31353 1.2206,0.77555 1.2207,0.77555 88.5,0.0205 88.49997,0.0205 10.47207,0.097 8.62666,-0.0208 0.16659,29.31535 -0.26523,28.09815 z m 83.41124,5.7e-4 -20.91124,0.50058 -1.25,-0.58391 -1.25,-0.58391 V 359.70626 217.41204 l 1.25,-0.97342 1.25,-0.97343 71,0.80864 71,0.80864 58.69093,-0.61712 58.6909,-0.61713 0.5425,2.40947 0.5425,2.40946 -0.2334,84 -0.2334,84 -29.25,0.2651 -29.25,0.26511 0.027,0.73489 0.027,0.7349 9.6015,11 9.6015,11 19.3714,22.80433 19.3714,22.80433 v 21.44567 21.44567 l -18.75,0.16027 -18.75,0.16026 -9.5,0.19669 -9.5,0.1967 -1.75,-0.42435 -1.75,-0.42435 v -9.74652 -9.74652 l -13.70433,-16.43609 -13.7043,-16.43609 -17.5457,-20.00645 -17.5457,-20.00644 -8.29739,-9.63202 -8.29738,-9.63201 -25.20262,-0.70175 -25.20261,-0.70175 -5,0.34021 -5,0.34021 -0.25826,56.75 -0.25825,56.75 h -8.83051 -8.83051 z m 175.58876,-170.89 3.50003,-0.11057 v -28 -28 l -68.88921,-0.25693 -68.88918,-0.25694 -1.13952,0.94571 -1.13951,0.94572 0.28867,25.7712 0.28867,25.77119 0.77212,0.77212 0.77211,0.77211 65.46791,0.87848 65.46791,0.87848 z"
       id="path1" />
  </g>
</svg>
