<?xml version="1.0" encoding="UTF-8" standalone="no"?>
<!-- Created with Inkscape (http://www.inkscape.org/) -->

<svg
   width="1023.9999"
   height="1023.9999"
   viewBox="0 0 270.93333 270.93333"
   version="1.1"
   id="svg1"
   xmlns="http://www.w3.org/2000/svg"
   xmlns:svg="http://www.w3.org/2000/svg">
  <defs
     id="defs1" />
  <g
     id="layer1">
    <path
       id="rect38"
       style="stroke-width:0.264583"
       d="m 21.166666,10.583333 c -5.863166,0 -10.583333,4.720167 -10.583333,10.583333 V 121.70833 c 0,5.86317 4.720167,10.58334 10.583333,10.58334 H 121.70833 c 5.86317,0 10.58334,-4.72017 10.58334,-10.58334 v -15.875 H 37.041666 V 84.666666 H 132.29167 V 58.208333 H 37.041666 V 37.041666 h 95.250004 v -15.875 c 0,-5.863166 -4.72017,-10.583333 -10.58334,-10.583333 z" />
    <path
       id="rect38-8"
       style="display:inline;stroke-width:0.264583"
       d="m 148.16666,10.583333 c -5.86316,0 -10.58333,4.72017 -10.58333,10.583333 V 121.70833 c 0,5.86317 4.72017,10.58334 10.58333,10.58334 H 158.75 V 84.666666 h 37.04166 v 23.812504 h 31.75 V 84.666666 h 31.75 v -63.5 c 0,-5.863163 -4.72016,-10.583333 -10.58333,-10.583333 z m 79.375,97.895837 v 23.8125 h 21.16667 c 5.86317,0 10.58333,-4.72017 10.58333,-10.58334 V 108.47917 Z M 158.75,31.75 h 79.375 V 63.499999 H 158.75 Z" />
    <path
       id="rect38-8-5"
       style="display:inline;stroke-width:0.264583"
       d="m 148.16666,137.58333 c -5.86317,0 -10.58333,4.72016 -10.58333,10.58333 v 100.54167 c 0,5.86316 4.72016,10.58333 10.58333,10.58333 h 100.54167 c 5.86316,0 10.58333,-4.72017 10.58333,-10.58333 v -21.16667 h -31.75 V 238.125 H 158.75 V 158.75 h 68.79166 v 10.58333 h 31.75 v -21.16667 c 0,-5.86317 -4.72017,-10.58333 -10.58333,-10.58333 z" />
    <path
       id="rect38-8-5-1"
       style="display:inline;stroke-width:0.264583"
       d="m 15.875,137.58333 c -2.931581,0 -5.291667,2.36009 -5.291667,5.29167 V 254 c 0,2.93159 2.360086,5.29166 5.291667,5.29166 H 31.75 v -95.25 h 26.458333 v 95.25 h 26.458333 v -95.25 H 111.125 v 95.25 H 127 c 2.93158,0 5.29167,-2.36007 5.29167,-5.29166 V 142.875 c 0,-2.93158 -2.36009,-5.29167 -5.29167,-5.29167 z" />
    <path
       id="rect42"
       style="display:inline;fill:#ffffff;stroke-width:0.264583"
       d="m 132.29166,26.45833 v 0 10.583333 0 z" />
  </g>
</svg>
